<?xml version="1.0" encoding="UTF-8" standalone="no"?>
<svg
   xmlns:dc="http://purl.org/dc/elements/1.1/"
   xmlns:cc="http://creativecommons.org/ns#"
   xmlns:rdf="http://www.w3.org/1999/02/22-rdf-syntax-ns#"
   xmlns:svg="http://www.w3.org/2000/svg"
   xmlns="http://www.w3.org/2000/svg"
   xmlns:sodipodi="http://sodipodi.sourceforge.net/DTD/sodipodi-0.dtd"
   xmlns:inkscape="http://www.inkscape.org/namespaces/inkscape"
   width="67.513969"
   height="32"
   viewBox="0 0 67.513969 32.000001"
   version="1.1"
   id="svg11"
   sodipodi:docname="BLOG.svg"
   inkscape:version="1.0.1 (3bc2e813f5, 2020-09-07)"
   inkscape:export-filename="C:\Users\Orik\Documents\PROJECTS\2021 NL dzwignice\mail.png"
   inkscape:export-xdpi="96"
   inkscape:export-ydpi="96">
  <metadata
     id="metadata15">
    <rdf:RDF>
      <cc:Work
         rdf:about="">
        <dc:format>image/svg+xml</dc:format>
        <dc:type
           rdf:resource="http://purl.org/dc/dcmitype/StillImage" />
        <dc:title>icon 6 mail envelope closed</dc:title>
      </cc:Work>
    </rdf:RDF>
  </metadata>
  <sodipodi:namedview
     pagecolor="#ffffff"
     bordercolor="#666666"
     borderopacity="1"
     objecttolerance="10"
     gridtolerance="10"
     guidetolerance="10"
     inkscape:pageopacity="0"
     inkscape:pageshadow="2"
     inkscape:window-width="1898"
     inkscape:window-height="997"
     id="namedview13"
     showgrid="false"
     inkscape:pagecheckerboard="true"
     fit-margin-top="0"
     fit-margin-left="0"
     fit-margin-right="0"
     fit-margin-bottom="0"
     inkscape:zoom="8.319553"
     inkscape:cx="36.258572"
     inkscape:cy="22.698395"
     inkscape:window-x="0"
     inkscape:window-y="0"
     inkscape:window-maximized="0"
     inkscape:current-layer="text837"
     inkscape:document-rotation="0" />
  <!-- Generator: Sketch 3.0.3 (7891) - http://www.bohemiancoding.com/sketch -->
  <title
     id="title2">icon 6 mail envelope closed</title>
  <desc
     id="desc4">Created with Sketch.</desc>
  <defs
     id="defs6" />
  <g
     aria-label="BLOG"
     id="text837"
     style="font-weight:bold;font-size:26.4088px;line-height:1.25;font-family:Calibri;-inkscape-font-specification:'Calibri Bold';stroke-width:1.10036">
    <path
       d="m 7.1435805,22.773858 q 0.99033,0 1.6637544,-0.23768 0.6734244,-0.237679 1.0695564,-0.633811 0.4093367,-0.396132 0.5809937,-0.924308 0.184861,-0.528176 0.184861,-1.122374 0,-0.620607 -0.198066,-1.109169 Q 10.246614,18.244748 9.8240737,17.901434 9.4015329,17.544915 8.7281085,17.360054 8.0678885,17.175192 7.1303761,17.175192 H 3.5519837 v 5.598666 z M 3.5519837,9.1997343 v 5.5194387 h 2.8257416 q 1.8222072,0 2.7465152,-0.66022 0.9375125,-0.66022 0.9375125,-2.099499 0,-1.492097 -0.8450817,-2.1259085 Q 8.3715897,9.1997343 6.5757913,9.1997343 Z M 6.5757913,6.453219 q 1.8750248,0 3.2086692,0.3565189 1.3336445,0.3565188 2.1787255,1.0167388 0.858286,0.66022 1.254418,1.5977324 0.396132,0.9375119 0.396132,2.1127039 0,0.673424 -0.198066,1.294031 -0.198066,0.607403 -0.620606,1.148783 -0.409337,0.528176 -1.056352,0.963921 -0.633812,0.435745 -1.518506,0.739447 3.934911,0.884694 3.934911,4.251817 0,1.214804 -0.462154,2.244748 -0.462154,1.029943 -1.346849,1.782594 -0.884695,0.739446 -2.178726,1.161987 -1.2940311,0.422541 -2.9577855,0.422541 H 3.528595e-8 V 6.453219 Z"
       style="font-style:normal;font-variant:normal;font-weight:bold;font-stretch:normal;font-family:lato;-inkscape-font-specification:'lato Bold';fill:#ffffff;stroke-width:1.10036"
       id="path833" />
    <path
       d="m 28.574288,22.615405 v 2.931377 H 17.390162 V 6.453219 h 3.551983 v 16.162186 z"
       style="font-style:normal;font-variant:normal;font-weight:bold;font-stretch:normal;font-family:lato;-inkscape-font-specification:'lato Bold';fill:#ffffff;stroke-width:1.10036"
       id="path835" />
    <path
       d="m 48.644912,16 q 0,2.0995 -0.699833,3.895298 -0.686629,1.782594 -1.954251,3.08983 -1.267622,1.307236 -3.050216,2.046682 -1.782594,0.726242 -3.96132,0.726242 -2.165522,0 -3.948116,-0.726242 Q 33.248582,24.292364 31.967755,22.985128 30.700133,21.677892 30.0003,19.895298 29.300466,18.0995 29.300466,16 q 0,-2.099499 0.699834,-3.882093 0.699833,-1.795799 1.967455,-3.1030343 1.280827,-1.3072356 3.063421,-2.0334776 1.782594,-0.7394465 3.948116,-0.7394465 1.452484,0 2.73331,0.3433145 1.280827,0.33011 2.350384,0.9507168 1.069556,0.6074024 1.914638,1.4920972 0.858286,0.8714904 1.452484,1.9542509 0.594198,1.082761 0.897899,2.350383 Q 48.644912,14.600334 48.644912,16 Z m -3.63121,0 q 0,-1.571323 -0.42254,-2.812537 -0.422541,-1.254418 -1.201601,-2.125908 -0.779059,-0.871491 -1.901433,-1.3336447 -1.10917,-0.462154 -2.508836,-0.462154 -1.399667,0 -2.522041,0.462154 -1.109169,0.4621537 -1.901433,1.3336447 -0.77906,0.87149 -1.201601,2.125908 Q 32.931676,14.428677 32.931676,16 q 0,1.571324 0.422541,2.825742 0.422541,1.241214 1.201601,2.112704 0.792264,0.858286 1.901433,1.32044 1.122374,0.462154 2.522041,0.462154 1.399666,0 2.508836,-0.462154 1.122374,-0.462154 1.901433,-1.32044 0.77906,-0.87149 1.201601,-2.112704 Q 45.013702,17.571324 45.013702,16 Z"
       style="font-style:normal;font-variant:normal;font-weight:bold;font-stretch:normal;font-family:lato;-inkscape-font-specification:'lato Bold';fill:#ffffff;stroke-width:1.10036"
       id="path837" />
    <path
       d="m 67.513967,15.973591 v 7.724575 q -1.452484,1.069556 -3.103034,1.571323 -1.637345,0.488563 -3.51237,0.488563 -2.337179,0 -4.238612,-0.726242 -1.88823,-0.726242 -3.235078,-2.020273 -1.333645,-1.294031 -2.059887,-3.08983 Q 50.638744,18.125909 50.638744,16 q 0,-2.152317 0.699833,-3.948115 0.699834,-1.795799 1.98066,-3.0898299 1.294032,-1.2940312 3.129443,-2.0070688 1.835412,-0.7130377 4.119773,-0.7130377 1.161987,0 2.165522,0.1848616 1.016738,0.1848617 1.875024,0.5149717 0.871491,0.3169056 1.584528,0.7790596 0.713038,0.462154 1.307236,1.0167388 l -1.016739,1.6109367 q -0.237679,0.382928 -0.620607,0.475358 -0.382927,0.07923 -0.831877,-0.198066 -0.435745,-0.250883 -0.87149,-0.501767 -0.435745,-0.2508833 -0.977126,-0.4357449 -0.528176,-0.1848616 -1.2016,-0.3037012 -0.66022,-0.1188396 -1.531711,-0.1188396 -1.41287,0 -2.561653,0.4753584 -1.135579,0.4753583 -1.941047,1.3600533 -0.805468,0.884695 -1.241214,2.125908 Q 54.269954,14.46829 54.269954,16 q 0,1.637346 0.462154,2.931377 0.475359,1.280827 1.32044,2.178726 0.858286,0.884695 2.059887,1.360053 1.2016,0.462154 2.680493,0.462154 1.056352,0 1.888229,-0.224474 0.831877,-0.224475 1.624141,-0.607403 V 18.64088 h -2.403201 q -0.343314,0 -0.54138,-0.184861 -0.184862,-0.198066 -0.184862,-0.475359 v -2.007069 z"
       style="font-style:normal;font-variant:normal;font-weight:bold;font-stretch:normal;font-family:lato;-inkscape-font-specification:'lato Bold';fill:#ffffff;stroke-width:1.10036"
       id="path839" />
  </g>
</svg>
