<?xml version="1.0" encoding="UTF-8" standalone="no"?>
<svg
   xmlns:dc="http://purl.org/dc/elements/1.1/"
   xmlns:cc="http://creativecommons.org/ns#"
   xmlns:rdf="http://www.w3.org/1999/02/22-rdf-syntax-ns#"
   xmlns:svg="http://www.w3.org/2000/svg"
   xmlns="http://www.w3.org/2000/svg"
   xmlns:sodipodi="http://sodipodi.sourceforge.net/DTD/sodipodi-0.dtd"
   xmlns:inkscape="http://www.inkscape.org/namespaces/inkscape"
   width="32"
   height="32"
   viewBox="0 0 32 32.000001"
   version="1.1"
   id="svg11"
   sodipodi:docname="twitter.svg"
   inkscape:version="1.0.1 (3bc2e813f5, 2020-09-07)"
   inkscape:export-filename="C:\Users\Orik\Documents\PROJECTS\2021 NL dzwignice\mail.png"
   inkscape:export-xdpi="96"
   inkscape:export-ydpi="96">
  <metadata
     id="metadata15">
    <rdf:RDF>
      <cc:Work
         rdf:about="">
        <dc:format>image/svg+xml</dc:format>
        <dc:type
           rdf:resource="http://purl.org/dc/dcmitype/StillImage" />
        <dc:title>icon 6 mail envelope closed</dc:title>
      </cc:Work>
    </rdf:RDF>
  </metadata>
  <sodipodi:namedview
     pagecolor="#ffffff"
     bordercolor="#666666"
     borderopacity="1"
     objecttolerance="10"
     gridtolerance="10"
     guidetolerance="10"
     inkscape:pageopacity="0"
     inkscape:pageshadow="2"
     inkscape:window-width="1920"
     inkscape:window-height="986"
     id="namedview13"
     showgrid="false"
     inkscape:pagecheckerboard="true"
     fit-margin-top="0"
     fit-margin-left="0"
     fit-margin-right="0"
     fit-margin-bottom="0"
     inkscape:zoom="16.639106"
     inkscape:cx="21.851237"
     inkscape:cy="15.099438"
     inkscape:window-x="-11"
     inkscape:window-y="-11"
     inkscape:window-maximized="1"
     inkscape:current-layer="svg11"
     inkscape:document-rotation="0" />
  <!-- Generator: Sketch 3.0.3 (7891) - http://www.bohemiancoding.com/sketch -->
  <title
     id="title2">icon 6 mail envelope closed</title>
  <desc
     id="desc4">Created with Sketch.</desc>
  <defs
     id="defs6" />
  <g
     id="g891"
     transform="matrix(0.76923077,0,0,0.76923077,3.6923077,3.6923077)">
    <path
       style="fill:#ffffff;stroke-width:0.0625"
       d="M 32,6.078 C 30.81,6.6 29.542,6.946 28.22,7.114 29.58,6.302 30.618,5.026 31.106,3.488 29.838,4.244 28.438,4.778 26.946,5.076 25.742,3.794 24.026,3 22.154,3 c -3.632,0 -6.556,2.948 -6.556,6.562 0,0.52 0.044,1.02 0.152,1.496 C 10.296,10.792 5.47,8.178 2.228,4.196 1.662,5.178 1.33,6.302 1.33,7.512 c 0,2.272 1.17,4.286 2.914,5.452 -1.054,-0.02 -2.088,-0.326 -2.964,-0.808 0,0.02 0,0.046 0,0.072 0,3.188 2.274,5.836 5.256,6.446 -0.534,0.146 -1.116,0.216 -1.72,0.216 -0.42,0 -0.844,-0.024 -1.242,-0.112 0.85,2.598 3.262,4.508 6.13,4.57 C 7.472,25.094 4.638,26.146 1.57,26.146 1.032,26.146 0.516,26.122 0,26.056 2.906,27.93 6.35,29 10.064,29 22.136,29 28.736,19 28.736,10.332 c 0,-0.29 -0.01,-0.57 -0.024,-0.848 C 30.014,8.56 31.108,7.406 32,6.078 Z"
       id="path2" />
    <g
       id="g4"
       transform="translate(0,-48)">
</g>
    <g
       id="g6"
       transform="translate(0,-48)">
</g>
    <g
       id="g8"
       transform="translate(0,-48)">
</g>
    <g
       id="g10"
       transform="translate(0,-48)">
</g>
    <g
       id="g12"
       transform="translate(0,-48)">
</g>
    <g
       id="g14"
       transform="translate(0,-48)">
</g>
    <g
       id="g16"
       transform="translate(0,-48)">
</g>
    <g
       id="g18"
       transform="translate(0,-48)">
</g>
    <g
       id="g20"
       transform="translate(0,-48)">
</g>
    <g
       id="g22"
       transform="translate(0,-48)">
</g>
    <g
       id="g24"
       transform="translate(0,-48)">
</g>
    <g
       id="g26"
       transform="translate(0,-48)">
</g>
    <g
       id="g28"
       transform="translate(0,-48)">
</g>
    <g
       id="g30"
       transform="translate(0,-48)">
</g>
    <g
       id="g32"
       transform="translate(0,-48)">
</g>
  </g>
</svg>
